<?xml version="1.0" encoding="UTF-8" standalone="no"?>
<svg
   xmlns:dc="http://purl.org/dc/elements/1.1/"
   xmlns:cc="http://creativecommons.org/ns#"
   xmlns:rdf="http://www.w3.org/1999/02/22-rdf-syntax-ns#"
   xmlns:svg="http://www.w3.org/2000/svg"
   xmlns="http://www.w3.org/2000/svg"
   xmlns:xlink="http://www.w3.org/1999/xlink"
   version="1.1"
   id="svg7533"
   viewBox="0 0 95.999988 95.999989"
   height="96"
   width="96">
  <defs
     id="defs7535">
    <linearGradient
       xlink:href="#linearGradient4778"
       id="linearGradient3561"
       gradientUnits="userSpaceOnUse"
       gradientTransform="translate(0,28.362183)"
       x1="446.71875"
       y1="347.01282"
       x2="393.25"
       y2="251.01282" />
    <linearGradient
       id="linearGradient4778">
      <stop
         id="stop4780"
         offset="0"
         style="stop-color:#866743;stop-opacity:1;" />
      <stop
         style="stop-color:#a78153;stop-opacity:1;"
         offset="0.5"
         id="stop4782" />
      <stop
         style="stop-color:#866743;stop-opacity:1;"
         offset="1"
         id="stop4784" />
    </linearGradient>
    <filter
       id="filter4041-1"
       style="color-interpolation-filters:sRGB">
      <feTurbulence
         id="feTurbulence4043-2"
         type="fractalNoise"
         baseFrequency="0.26640776699029128 0.19609375000000001"
         numOctaves="1"
         seed="103" />
      <feColorMatrix
         type="saturate"
         id="feColorMatrix4045-3"
         values="1"
         result="result0" />
      <feFlood
         id="feFlood4047-8"
         result="result1"
         flood-color="rgb(143,110,71)"
         flood-opacity="1" />
      <feBlend
         id="feBlend4049-9"
         in="result1"
         mode="normal"
         in2="SourceGraphic" />
      <feComposite
         id="feComposite4051-4"
         in2="result0"
         operator="in" />
      <feComposite
         id="feComposite4053-9"
         in2="SourceGraphic"
         operator="atop"
         result="fbSourceGraphic" />
      <feColorMatrix
         result="fbSourceGraphicAlpha"
         in="fbSourceGraphic"
         values="0 0 0 -1 0 0 0 0 -1 0 0 0 0 -1 0 0 0 0 1 0"
         id="feColorMatrix4095-9"
         type="matrix" />
      <feGaussianBlur
         id="feGaussianBlur4097-2"
         stdDeviation="1.9165889830508476"
         result="result8"
         in="fbSourceGraphic" />
      <feOffset
         id="feOffset4099-5"
         dx="0"
         dy="0"
         result="result11" />
      <feComposite
         id="feComposite4101-5"
         in2="result11"
         result="result6"
         in="fbSourceGraphic"
         operator="in" />
      <feFlood
         id="feFlood4103-3"
         result="result10"
         in="result6"
         flood-opacity="0.3923076923076923"
         flood-color="rgb(0,0,0)" />
      <feBlend
         id="feBlend4105-6"
         in2="result10"
         mode="normal"
         in="result6"
         result="result12" />
      <feComposite
         id="feComposite4107-4"
         in2="fbSourceGraphic"
         result="result2"
         operator="atop" />
    </filter>
    <linearGradient
       xlink:href="#linearGradient4778"
       id="linearGradient3563"
       gradientUnits="userSpaceOnUse"
       gradientTransform="translate(0,28.362183)"
       x1="446.75"
       y1="251.01282"
       x2="393.28125"
       y2="347.01282" />
    <linearGradient
       xlink:href="#linearGradient4778"
       id="linearGradient3565"
       gradientUnits="userSpaceOnUse"
       gradientTransform="translate(0,28.362183)"
       x1="391.27859"
       y1="299.01282"
       x2="448.75"
       y2="299.01282" />
    <radialGradient
       xlink:href="#linearGradient4179"
       id="radialGradient3567"
       gradientUnits="userSpaceOnUse"
       gradientTransform="matrix(0.55846433,-2.1618043e-8,2.1618039e-8,0.55846422,138.53397,173.0238)"
       cx="504"
       cy="276.36218"
       fx="504"
       fy="276.36218"
       r="50.137501" />
    <linearGradient
       id="linearGradient4179">
      <stop
         style="stop-color:#7d6a4b;stop-opacity:1;"
         offset="0"
         id="stop4181" />
      <stop
         style="stop-color:#635239;stop-opacity:1;"
         offset="1"
         id="stop4183" />
    </linearGradient>
    <filter
       id="filter4041"
       style="color-interpolation-filters:sRGB">
      <feTurbulence
         id="feTurbulence4043"
         type="fractalNoise"
         baseFrequency="0.32727272727272733 0.017087378640776699"
         numOctaves="4"
         seed="103" />
      <feColorMatrix
         type="saturate"
         id="feColorMatrix4045"
         values="1"
         result="result0" />
      <feFlood
         id="feFlood4047"
         result="result1"
         flood-color="rgb(94,72,50)"
         flood-opacity="1" />
      <feBlend
         id="feBlend4049"
         in="result1"
         mode="normal"
         in2="SourceGraphic" />
      <feComposite
         id="feComposite4051"
         in2="result0"
         operator="in" />
      <feComposite
         id="feComposite4053"
         in2="SourceGraphic"
         operator="atop"
         result="fbSourceGraphic" />
      <feColorMatrix
         result="fbSourceGraphicAlpha"
         in="fbSourceGraphic"
         values="0 0 0 -1 0 0 0 0 -1 0 0 0 0 -1 0 0 0 0 1 0"
         id="feColorMatrix4095"
         type="matrix" />
      <feGaussianBlur
         id="feGaussianBlur4097"
         stdDeviation="6"
         result="result8"
         in="fbSourceGraphic" />
      <feOffset
         id="feOffset4099"
         dx="0"
         dy="0"
         result="result11" />
      <feComposite
         id="feComposite4101"
         in2="result11"
         result="result6"
         in="fbSourceGraphic"
         operator="in" />
      <feFlood
         id="feFlood4103"
         result="result10"
         in="result6"
         flood-opacity="0.3923076923076923"
         flood-color="rgb(0,0,0)" />
      <feBlend
         id="feBlend4105"
         in2="result10"
         mode="normal"
         in="result6"
         result="result12" />
      <feComposite
         id="feComposite4107"
         in2="fbSourceGraphic"
         result="result2"
         operator="atop" />
    </filter>
    <filter
       id="filter4041-1-5"
       style="color-interpolation-filters:sRGB">
      <feTurbulence
         id="feTurbulence4043-2-3"
         type="fractalNoise"
         baseFrequency="0.26640776699029128 0.19609375000000001"
         numOctaves="1"
         seed="103" />
      <feColorMatrix
         type="saturate"
         id="feColorMatrix4045-3-3"
         values="1"
         result="result0" />
      <feFlood
         id="feFlood4047-8-0"
         result="result1"
         flood-color="rgb(143,110,71)"
         flood-opacity="1" />
      <feBlend
         id="feBlend4049-9-5"
         in="result1"
         mode="normal"
         in2="SourceGraphic" />
      <feComposite
         id="feComposite4051-4-5"
         in2="result0"
         operator="in" />
      <feComposite
         id="feComposite4053-9-2"
         in2="SourceGraphic"
         operator="atop"
         result="fbSourceGraphic" />
      <feColorMatrix
         result="fbSourceGraphicAlpha"
         in="fbSourceGraphic"
         values="0 0 0 -1 0 0 0 0 -1 0 0 0 0 -1 0 0 0 0 1 0"
         id="feColorMatrix4095-9-9"
         type="matrix" />
      <feGaussianBlur
         id="feGaussianBlur4097-2-5"
         stdDeviation="1.9165889830508476"
         result="result8"
         in="fbSourceGraphic" />
      <feOffset
         id="feOffset4099-5-2"
         dx="0"
         dy="0"
         result="result11" />
      <feComposite
         id="feComposite4101-5-1"
         in2="result11"
         result="result6"
         in="fbSourceGraphic"
         operator="in" />
      <feFlood
         id="feFlood4103-3-5"
         result="result10"
         in="result6"
         flood-opacity="0.3923076923076923"
         flood-color="rgb(0,0,0)" />
      <feBlend
         id="feBlend4105-6-0"
         in2="result10"
         mode="normal"
         in="result6"
         result="result12" />
      <feComposite
         id="feComposite4107-4-8"
         in2="fbSourceGraphic"
         result="result2"
         operator="atop" />
    </filter>
    <filter
       id="filter4041-2"
       style="color-interpolation-filters:sRGB">
      <feTurbulence
         id="feTurbulence4043-6"
         type="fractalNoise"
         baseFrequency="0.32727272727272733 0.017087378640776699"
         numOctaves="4"
         seed="103" />
      <feColorMatrix
         type="saturate"
         id="feColorMatrix4045-35"
         values="1"
         result="result0" />
      <feFlood
         id="feFlood4047-1"
         result="result1"
         flood-color="rgb(94,72,50)"
         flood-opacity="1" />
      <feBlend
         id="feBlend4049-1"
         in="result1"
         mode="normal"
         in2="SourceGraphic" />
      <feComposite
         id="feComposite4051-0"
         in2="result0"
         operator="in" />
      <feComposite
         id="feComposite4053-4"
         in2="SourceGraphic"
         operator="atop"
         result="fbSourceGraphic" />
      <feColorMatrix
         result="fbSourceGraphicAlpha"
         in="fbSourceGraphic"
         values="0 0 0 -1 0 0 0 0 -1 0 0 0 0 -1 0 0 0 0 1 0"
         id="feColorMatrix4095-5"
         type="matrix" />
      <feGaussianBlur
         id="feGaussianBlur4097-1"
         stdDeviation="6"
         result="result8"
         in="fbSourceGraphic" />
      <feOffset
         id="feOffset4099-9"
         dx="0"
         dy="0"
         result="result11" />
      <feComposite
         id="feComposite4101-0"
         in2="result11"
         result="result6"
         in="fbSourceGraphic"
         operator="in" />
      <feFlood
         id="feFlood4103-9"
         result="result10"
         in="result6"
         flood-opacity="0.3923076923076923"
         flood-color="rgb(0,0,0)" />
      <feBlend
         id="feBlend4105-2"
         in2="result10"
         mode="normal"
         in="result6"
         result="result12" />
      <feComposite
         id="feComposite4107-5"
         in2="fbSourceGraphic"
         result="result2"
         operator="atop" />
    </filter>
    <clipPath
       id="clipPath8361"
       clipPathUnits="userSpaceOnUse">
      <g
         id="g8363"
         style="display:inline">
        <g
           id="g8365">
          <path
             d="m 372.6186,327.36221 2.8043,-5.583 22.8271,45.58298 -5.60364,0 z m 69.16265,-40.00002 5.58734,0 19.99984,39.99968 -2.78904,5.5966 z"
             style="fill:url(#linearGradient8395);fill-opacity:1;stroke:none;filter:url(#filter4041-1-5)"
             id="path8367" />
          <path
             d="m 395.125,282.375 5.58734,0 -22.49359,44.98719 -2.79585,-5.58298 z m 66.65625,44.98719 2.79814,5.59628 -19.73564,39.41653 -5.60407,0 z"
             style="fill:url(#linearGradient8397);fill-opacity:1;stroke:none;filter:url(#filter4041-1-5)"
             id="path8369" />
          <g
             id="g8371">
            <path
               id="path8373"
               style="fill:url(#linearGradient8399);fill-opacity:1;stroke:none;filter:url(#filter4041-1-5)"
               d="m 398.21875,287.36219 2.49359,-4.98719 44.16266,0 2.49359,4.98719 z m -3.0625,85.01281 -2.50989,-5.01281 49.10359,0 -2.51027,5.01281 z" />
            <path
               id="path8375"
               d="m 398.21875,287.36219 -20,40 20.03125,40 43.5,0 20.03125,-40 -20,-40 z"
               style="display:inline;fill:url(#radialGradient8401);fill-opacity:1;stroke:none;filter:url(#filter4041-2)" />
            <path
               style="opacity:0.07999998;fill:#ffffff;fill-opacity:1;stroke:none"
               d="m 394.27974,368.375 1.49357,3 -0.61706,1 -2.50231,-5.01281 z"
               id="path8377" />
            <path
               style="opacity:0.07999998;fill:#ffffff;fill-opacity:1;stroke:none"
               d="m 392.64636,367.36219 1.63276,1.01281 1.50213,3 -0.59382,1 z"
               id="path8379" />
            <path
               id="path8381"
               style="opacity:0.07999998;fill:#ffffff;fill-opacity:1;stroke:none"
               d="m 393.2777,366.375 -0.63134,0.98719 -20.02136,-39.98719 1.125,0 z m -15.05895,-39.01281 -2.79585,-5.58298 1.13067,-0.0113 1.67255,3.34237 z" />
            <path
               style="opacity:0.07999998;fill:#ffffff;fill-opacity:1;stroke:none"
               d="m 441.78125,287.36219 1.625,1.01281 21.17069,42.34138 0.002,2.24209 z"
               id="path8383" />
            <path
               id="path8385"
               style="opacity:0.17000002;fill:#ffffff;fill-opacity:1;stroke:none"
               d="m 443.40625,288.375 -1.625,-1.01281 5.58734,0 -0.61859,1.01281 z m -48.2812,-6 5.58734,0 -1.61859,1 -3.34375,0 z m -0.84593,86 -1.63276,-1.01281 49.10369,0 -1.6258,1.01281 z m 7.06668,-85 -0.63341,-1 44.16261,0 -0.625,1 z" />
            <path
               id="path8387"
               style="opacity:0.17000002;fill:#000000;fill-opacity:1;stroke:none"
               d="m 444.21875,371.375 0.625,1 -5.60407,0 1.63303,-1 z m -48.4375,0 42.84175,0 0.61668,1 -44.07549,0 z m 2.4375,-84.01281 1.6258,-0.98719 45.90545,0 1.61859,0.98719 z m -1.59527,79.01281 1.62652,0.98719 -5.60364,0 0.63134,-0.98719 z" />
            <path
               id="path8389"
               style="opacity:0.25;fill:#ffffff;fill-opacity:1;stroke:none"
               d="m 461.7814,327.36189 0.007,2.24488 -20.91569,41.76823 -1.63303,1 z m -88.0314,0.0131 -1.125,0 2.7979,-5.59574 -0.002,2.25459 z m 2.80357,-5.60714 -1.13067,0.0113 19.7021,-39.40421 0.625,1 z m 24.15877,-39.39286 0.63301,1 -1.5008,3 -1.6258,0.98719 z" />
            <path
               id="path8391"
               style="opacity:0.125;fill:#000000;fill-opacity:1;stroke:none"
               d="m 461.78867,329.60681 -0.007,-2.24458 2.79772,5.59624 -1.11931,-0.0115 z M 446.75,288.375 l 0.61859,-1.01281 20.00641,40.01281 -1.13156,-0.0131 z m -48.5,78.98723 -1.62652,-0.98719 -21.20288,-42.34124 0.002,-2.25459 z m 46,-83.98723 0.625,-1 2.49359,4.98719 L 445.75,286.375 Z" />
            <path
               id="path8393"
               style="opacity:0.25;fill:#000000;fill-opacity:1;stroke:none"
               d="m 463.46008,332.94692 1.11931,0.0115 -19.73564,39.41653 -0.625,-1 z m 2.78336,-5.58504 1.12499,-10e-6 -2.78904,5.5966 -0.002,-2.24209 z m -67.14969,-43.98688 1.61859,-1 -22.49359,44.98716 0.007,-2.25192 z m 42.65625,83.98719 -2.51032,5.01281 -0.61668,-1 1.5012,-3 z" />
          </g>
        </g>
      </g>
    </clipPath>
    <linearGradient
       y2="251.01282"
       x2="393.25"
       y1="347.01282"
       x1="446.71875"
       gradientTransform="translate(0,28.362183)"
       gradientUnits="userSpaceOnUse"
       id="linearGradient8395"
       xlink:href="#linearGradient4778" />
    <linearGradient
       y2="347.01282"
       x2="393.28125"
       y1="251.01282"
       x1="446.75"
       gradientTransform="translate(0,28.362183)"
       gradientUnits="userSpaceOnUse"
       id="linearGradient8397"
       xlink:href="#linearGradient4778" />
    <linearGradient
       y2="299.01282"
       x2="448.75"
       y1="299.01282"
       x1="391.27859"
       gradientTransform="translate(0,28.362183)"
       gradientUnits="userSpaceOnUse"
       id="linearGradient8399"
       xlink:href="#linearGradient4778" />
    <radialGradient
       r="50.137501"
       fy="276.36218"
       fx="504"
       cy="276.36218"
       cx="504"
       gradientTransform="matrix(0.55846433,-2.1618043e-8,2.1618039e-8,0.55846422,138.53397,173.0238)"
       gradientUnits="userSpaceOnUse"
       id="radialGradient8401"
       xlink:href="#linearGradient4179" />
  </defs>
  <metadata
     id="metadata7538">
    <rdf:RDF>
      <cc:Work
         rdf:about="">
        <dc:format>image/svg+xml</dc:format>
        <dc:type
           rdf:resource="http://purl.org/dc/dcmitype/StillImage" />
        <dc:title></dc:title>
      </cc:Work>
    </rdf:RDF>
  </metadata>
  <g
     transform="translate(22.56401,-762.5525)"
     id="layer1">
    <g
       clip-path="url(#clipPath8361)"
       id="use3319"
       transform="translate(-394.56082,483.17752)"
       style="display:inline">
      <g
         id="g3531">
        <path
           d="m 372.6186,327.36221 2.8043,-5.583 22.8271,45.58298 -5.60364,0 z m 69.16265,-40.00002 5.58734,0 19.99984,39.99968 -2.78904,5.5966 z"
           style="fill:url(#linearGradient3561);fill-opacity:1;stroke:none;filter:url(#filter4041-1)"
           id="path3533" />
        <path
           d="m 395.125,282.375 5.58734,0 -22.49359,44.98719 -2.79585,-5.58298 z m 66.65625,44.98719 2.79814,5.59628 -19.73564,39.41653 -5.60407,0 z"
           style="fill:url(#linearGradient3563);fill-opacity:1;stroke:none;filter:url(#filter4041-1)"
           id="path3535" />
        <g
           id="g3537">
          <path
             id="path3539"
             style="fill:url(#linearGradient3565);fill-opacity:1;stroke:none;filter:url(#filter4041-1)"
             d="m 398.21875,287.36219 2.49359,-4.98719 44.16266,0 2.49359,4.98719 z m -3.0625,85.01281 -2.50989,-5.01281 49.10359,0 -2.51027,5.01281 z" />
          <path
             id="path3541"
             d="m 398.21875,287.36219 -20,40 20.03125,40 43.5,0 20.03125,-40 -20,-40 z"
             style="display:inline;fill:url(#radialGradient3567);fill-opacity:1;stroke:none;filter:url(#filter4041)" />
          <path
             style="opacity:0.07999998;fill:#ffffff;fill-opacity:1;stroke:none"
             d="m 394.27974,368.375 1.49357,3 -0.61706,1 -2.50231,-5.01281 z"
             id="path3543" />
          <path
             style="opacity:0.07999998;fill:#ffffff;fill-opacity:1;stroke:none"
             d="m 392.64636,367.36219 1.63276,1.01281 1.50213,3 -0.59382,1 z"
             id="path3545" />
          <path
             id="path3547"
             style="opacity:0.07999998;fill:#ffffff;fill-opacity:1;stroke:none"
             d="m 393.2777,366.375 -0.63134,0.98719 -20.02136,-39.98719 1.125,0 z m -15.05895,-39.01281 -2.79585,-5.58298 1.13067,-0.0113 1.67255,3.34237 z" />
          <path
             style="opacity:0.07999998;fill:#ffffff;fill-opacity:1;stroke:none"
             d="m 441.78125,287.36219 1.625,1.01281 21.17069,42.34138 0.002,2.24209 z"
             id="path3549" />
          <path
             id="path3551"
             style="opacity:0.17000002;fill:#ffffff;fill-opacity:1;stroke:none"
             d="m 443.40625,288.375 -1.625,-1.01281 5.58734,0 -0.61859,1.01281 z m -48.2812,-6 5.58734,0 -1.61859,1 -3.34375,0 z m -0.84593,86 -1.63276,-1.01281 49.10369,0 -1.6258,1.01281 z m 7.06668,-85 -0.63341,-1 44.16261,0 -0.625,1 z" />
          <path
             id="path3553"
             style="opacity:0.17000002;fill:#000000;fill-opacity:1;stroke:none"
             d="m 444.21875,371.375 0.625,1 -5.60407,0 1.63303,-1 z m -48.4375,0 42.84175,0 0.61668,1 -44.07549,0 z m 2.4375,-84.01281 1.6258,-0.98719 45.90545,0 1.61859,0.98719 z m -1.59527,79.01281 1.62652,0.98719 -5.60364,0 0.63134,-0.98719 z" />
          <path
             id="path3555"
             style="opacity:0.25;fill:#ffffff;fill-opacity:1;stroke:none"
             d="m 461.7814,327.36189 0.007,2.24488 -20.91569,41.76823 -1.63303,1 z m -88.0314,0.0131 -1.125,0 2.7979,-5.59574 -0.002,2.25459 z m 2.80357,-5.60714 -1.13067,0.0113 19.7021,-39.40421 0.625,1 z m 24.15877,-39.39286 0.63301,1 -1.5008,3 -1.6258,0.98719 z" />
          <path
             id="path3557"
             style="opacity:0.125;fill:#000000;fill-opacity:1;stroke:none"
             d="m 461.78867,329.60681 -0.007,-2.24458 2.79772,5.59624 -1.11931,-0.0115 z M 446.75,288.375 l 0.61859,-1.01281 20.00641,40.01281 -1.13156,-0.0131 z m -48.5,78.98723 -1.62652,-0.98719 -21.20288,-42.34124 0.002,-2.25459 z m 46,-83.98723 0.625,-1 2.49359,4.98719 L 445.75,286.375 Z" />
          <path
             id="path3559"
             style="opacity:0.25;fill:#000000;fill-opacity:1;stroke:none"
             d="m 463.46008,332.94692 1.11931,0.0115 -19.73564,39.41653 -0.625,-1 z m 2.78336,-5.58504 1.12499,-10e-6 -2.78904,5.5966 -0.002,-2.24209 z m -67.14969,-43.98688 1.61859,-1 -22.49359,44.98716 0.007,-2.25192 z m 42.65625,83.98719 -2.51032,5.01281 -0.61668,-1 1.5012,-3 z" />
        </g>
      </g>
    </g>
  </g>
</svg>
